# Made in Blockbench 5.0.4
mtllib gem.mtl

o pyramid
v 0 0.59375 -1.1481063742006436e-17
v 0.0625 0.65625 -0.0625
v 0.0625 0.65625 0.06249999999999999
v -0.0625 0.65625 -0.0625
v -0.0625 0.65625 0.06249999999999999
v 0 0.71875 3.827021247335479e-18
v 0.0625 0.65625 0.06249999999999999
v 0.0625 0.65625 -0.0625
v -0.0625 0.65625 0.06249999999999999
v -0.0625 0.65625 -0.0625
vt 0.25 0.625
vt 0.25 0.6875
vt 0.1875 0.6875
vt 0.1875 0.625
vt 0 0.549553125
vt 0.0625 0.549553125
vt 0.03125 0.59375
vt 0.375 0.674553125
vt 0.4375 0.674553125
vt 0.40625 0.71875
vt 0.375 0.580803125
vt 0.4375 0.580803125
vt 0.40625 0.625
vt 0.09375 0.549553125
vt 0.15625 0.549553125
vt 0.125 0.59375
vt 0.15625 0.625
vt 0.15625 0.6875
vt 0.09375 0.6875
vt 0.09375 0.625
vt 0.375 0.862053125
vt 0.4375 0.862053125
vt 0.40625 0.90625
vt 0.28125 0.643303125
vt 0.34375 0.643303125
vt 0.3125 0.6875
vt 0.375 0.955803125
vt 0.4375 0.955803125
vt 0.40625 1
vt 0.375 0.768303125
vt 0.4375 0.768303125
vt 0.40625 0.8125
vn 0 1 1.2246467991473532e-16
vn 0.7071067811865476 -0.7071067811865476 -8.659560562354934e-17
vn 0 -0.7071067811865475 -0.7071067811865477
vn 0 -0.7071067811865477 0.7071067811865475
vn -0.7071067811865476 -0.7071067811865476 -8.659560562354934e-17
vn 0 -1 -1.2246467991473532e-16
vn 0.7071067811865476 0.7071067811865476 8.659560562354934e-17
vn 0 0.7071067811865475 0.7071067811865477
vn 0 0.7071067811865477 -0.7071067811865475
vn -0.7071067811865476 0.7071067811865476 8.659560562354934e-17
usemtl m_5b3e3c4b-ba7a-3699-6d61-82ffa0eeb1ad
f 3/1/1 2/2/1 4/3/1 5/4/1
f 2/5/2 3/6/2 1/7/2
f 4/8/3 2/9/3 1/10/3
f 3/11/4 5/12/4 1/13/4
f 5/14/5 4/15/5 1/16/5
f 8/17/6 7/18/6 9/19/6 10/20/6
f 7/21/7 8/22/7 6/23/7
f 9/24/8 7/25/8 6/26/8
f 8/27/9 10/28/9 6/29/9
f 10/30/10 9/31/10 6/32/10