# Blender 4.5.4 LTS
# www.blender.org
mtllib slash_thick.mtl
o Cube
v 0.009960 0.000000 -0.930056
v -0.676058 0.000000 -0.877658
v 0.261494 -0.059486 0.000000
v -0.540547 -0.000000 -0.936208
v 0.249361 0.059486 0.000000
v -0.382383 -0.000000 0.000000
v 0.489402 0.000000 0.000000
v -0.201143 -0.021744 0.000000
v -0.201143 0.021744 0.000000
v -0.179683 0.000000 -1.000000
v 0.068729 0.059486 -0.500000
v 0.080156 -0.059486 -0.500000
v -0.476367 0.000000 -0.500000
v 0.312708 0.000000 -0.500000
v -0.304400 -0.020236 -0.500000
v -0.304400 0.020236 -0.500000
v -0.084861 0.000000 -0.985042
v 0.181906 -0.036830 -0.500000
v 0.361747 -0.037337 0.000000
v 0.339217 0.037337 0.000000
v 0.159936 0.036830 -0.500000
v 0.009960 0.000000 0.930056
v -0.676058 0.000000 0.877658
v -0.540547 -0.000000 0.936208
v -0.179683 0.000000 1.000000
v 0.068729 0.059486 0.500000
v 0.080156 -0.059486 0.500000
v -0.476367 0.000000 0.500000
v 0.312708 0.000000 0.500000
v -0.304400 -0.020236 0.500000
v -0.304400 0.020236 0.500000
v -0.084861 0.000000 0.985042
v 0.181906 -0.036830 0.500000
v 0.159936 0.036830 0.500000
vn -0.0572 -0.9969 -0.0546
vn -0.0930 0.9954 0.0249
vn -0.1180 -0.9928 0.0218
vn 0.2745 -0.9565 -0.0984
vn 0.2393 0.9671 -0.0866
vn -0.1180 0.9928 0.0218
vn 0.1321 0.9779 -0.1618
vn -0.0905 -0.9956 0.0242
vn -0.0639 0.9979 0.0094
vn 0.1972 -0.9669 -0.1617
vn -0.0639 -0.9979 0.0094
vn -0.0581 0.9968 -0.0548
vn 0.1252 -0.9787 -0.1626
vn 0.1770 0.9735 -0.1451
vn 0.2369 0.9678 -0.0848
vn 0.2159 -0.9733 -0.0785
vn -0.0572 -0.9969 0.0546
vn -0.0930 0.9954 -0.0249
vn -0.1180 -0.9928 -0.0218
vn 0.2745 -0.9565 0.0984
vn 0.2393 0.9671 0.0866
vn -0.1180 0.9928 -0.0218
vn 0.1321 0.9779 0.1618
vn -0.0905 -0.9956 -0.0242
vn -0.0639 0.9979 -0.0094
vn 0.1972 -0.9669 0.1617
vn -0.0639 -0.9979 -0.0094
vn -0.0581 0.9968 0.0548
vn 0.1252 -0.9787 0.1626
vn 0.1770 0.9735 0.1451
vn 0.2369 0.9678 0.0848
vn 0.2159 -0.9733 0.0785
vt 0.337967 0.727405
vt 0.247731 0.727405
vt 0.247731 0.909692
vt 0.337967 0.909692
vt 0.247731 0.545118
vt 0.337967 0.545118
vt 0.337967 0.454882
vt 0.247731 0.454882
vt 0.384226 0.545118
vt 0.430485 0.545118
vt 0.430485 0.454882
vt 0.384226 0.454882
vt 0.047363 0.545118
vt 0.123901 0.545118
vt 0.123901 0.454882
vt 0.047363 0.454882
vt 0.200440 0.545118
vt 0.200440 0.454882
vt 0.200440 0.727405
vt 0.247731 0.999928
vt 0.337967 0.999928
vt 0.384226 0.727405
vt 0.047363 0.727405
vt 0.123901 0.727405
vt 0.384226 0.909692
vt 0.200440 0.909692
vt 0.000072 0.545118
vt 0.000072 0.454882
vt 0.337967 0.182359
vt 0.337967 0.000072
vt 0.247731 0.000072
vt 0.247731 0.182359
vt 0.247731 0.364646
vt 0.337967 0.364646
vt 0.384226 0.364646
vt 0.430485 0.364646
vt 0.047363 0.364646
vt 0.123901 0.364646
vt 0.200440 0.364646
vt 0.200440 0.182359
vt 0.520721 0.454882
vt 0.520721 0.364646
vt 0.384226 0.182359
vt 0.047363 0.182359
vt 0.123901 0.182359
vt 0.430485 0.182359
vt 0.200440 0.000072
vt 0.000072 0.364646
s 0
usemtl none
f 4/1/1 10/2/1 12/3/1 15/4/1
f 11/5/2 16/6/2 9/7/2 5/8/2
f 13/9/3 15/10/3 8/11/3 6/12/3
f 18/13/4 14/14/4 7/15/4 19/16/4
f 21/17/5 11/5/5 5/8/5 20/18/5
f 16/6/6 13/9/6 6/12/6 9/7/6
f 17/19/7 10/2/7 11/5/7 21/17/7
f 15/4/8 12/3/8 3/20/8 8/21/8
f 4/1/9 2/22/9 13/9/9 16/6/9
f 17/23/10 1/24/10 14/14/10 18/13/10
f 2/22/11 4/1/11 15/4/11 13/25/11
f 10/2/12 4/1/12 16/6/12 11/5/12
f 10/2/13 17/19/13 18/26/13 12/3/13
f 1/24/14 17/19/14 21/17/14 14/14/14
f 14/14/15 21/17/15 20/18/15 7/15/15
f 12/27/16 18/13/16 19/16/16 3/28/16
f 24/29/17 30/30/17 27/31/17 25/32/17
f 26/33/18 5/8/18 9/7/18 31/34/18
f 28/35/19 6/12/19 8/11/19 30/36/19
f 33/37/20 19/16/20 7/15/20 29/38/20
f 34/39/21 20/18/21 5/8/21 26/33/21
f 31/34/22 9/7/22 6/12/22 28/35/22
f 32/40/23 34/39/23 26/33/23 25/32/23
f 30/36/24 8/11/24 3/41/24 27/42/24
f 24/29/25 31/34/25 28/35/25 23/43/25
f 32/44/26 33/37/26 29/38/26 22/45/26
f 23/43/27 28/35/27 30/36/27 24/46/27
f 25/32/28 26/33/28 31/34/28 24/29/28
f 25/32/29 27/31/29 33/47/29 32/40/29
f 22/45/30 29/38/30 34/39/30 32/40/30
f 29/38/31 7/15/31 20/18/31 34/39/31
f 27/48/32 3/28/32 19/16/32 33/37/32
