# Blender 4.5.4 LTS
# www.blender.org
mtllib slash_wave.mtl
o SlashWave
v 0.000000 -0.021201 0.325025
v 0.000000 0.021201 0.325025
v 0.186275 -0.018598 0.333503
v 0.186275 0.018598 0.333503
v 0.374747 -0.016827 0.366008
v 0.374747 0.016827 0.366008
v 0.570770 -0.016235 0.428129
v 0.570770 0.016235 0.428129
v 0.732119 -0.017298 0.509309
v 0.732119 0.017298 0.509309
v 0.881362 -0.013938 0.602563
v 0.881362 0.013938 0.602563
v 1.026531 0.000000 0.716204
v 1.026531 0.000000 0.716204
v 0.000000 0.000000 -0.389443
v 0.186278 0.000000 -0.380965
v 0.367094 0.000000 -0.348479
v 0.530707 0.000000 -0.283417
v 0.678819 0.000000 -0.190098
v 0.815230 0.000000 -0.074959
v 0.943482 0.000000 0.055221
v 0.000000 -0.056067 -0.219969
v 0.186272 -0.046880 -0.211492
v 0.363348 -0.040101 -0.175765
v 0.523618 -0.034984 -0.107573
v 0.671728 -0.031526 -0.014149
v 0.819400 -0.019424 0.097789
v 0.953888 0.000000 0.218323
v 0.000000 0.056067 -0.219969
v 0.186272 0.046880 -0.211492
v 0.363348 0.040101 -0.175765
v 0.523618 0.034984 -0.107573
v 0.671728 0.031526 -0.014149
v 0.819400 0.019424 0.097789
v 0.953888 0.000000 0.218323
v -0.186275 -0.018598 0.333503
v -0.186275 0.018598 0.333503
v -0.374747 -0.016827 0.366008
v -0.374747 0.016827 0.366008
v -0.570770 -0.016235 0.428129
v -0.570770 0.016235 0.428129
v -0.732119 -0.017298 0.509309
v -0.732119 0.017298 0.509309
v -0.881362 -0.013938 0.602563
v -0.881362 0.013938 0.602563
v -1.026531 0.000000 0.716204
v -1.026531 0.000000 0.716204
v -0.186278 0.000000 -0.380965
v -0.367094 0.000000 -0.348479
v -0.530707 0.000000 -0.283417
v -0.678819 0.000000 -0.190098
v -0.815230 0.000000 -0.074959
v -0.943482 0.000000 0.055221
v -0.186272 -0.046880 -0.211492
v -0.363348 -0.040101 -0.175765
v -0.523618 -0.034984 -0.107573
v -0.671728 -0.031526 -0.014149
v -0.819400 -0.019424 0.097789
v -0.953888 0.000000 0.218323
v -0.186272 0.046880 -0.211492
v -0.363348 0.040101 -0.175765
v -0.523618 0.034984 -0.107573
v -0.671728 0.031526 -0.014149
v -0.819400 0.019424 0.097789
v -0.953888 0.000000 0.218323
vn -0.0000 -0.9983 0.0578
vn -0.0000 0.9983 0.0578
vn 0.0213 -0.9984 0.0522
vn 0.0213 0.9984 0.0522
vn 0.0072 -0.9991 0.0424
vn 0.0072 0.9991 0.0424
vn -0.0061 -0.9994 0.0346
vn -0.0061 0.9994 0.0346
vn 0.0261 -0.9995 0.0197
vn 0.0261 0.9995 0.0197
vn 0.1047 -0.9945 -0.0047
vn 0.1047 0.9945 -0.0047
vn 0.1282 -0.9917 -0.0118
vn 0.1282 0.9917 -0.0118
vn -0.0000 -0.0000 -1.0000
vn 0.1822 -0.0000 -0.9833
vn 0.3286 -0.0000 -0.9445
vn 0.4844 -0.0000 -0.8748
vn 0.6234 -0.0000 -0.7819
vn 0.7747 -0.0000 -0.6324
vn 0.9041 -0.0000 -0.4274
vn -0.0000 -0.9925 -0.1225
vn 0.0383 -0.9925 -0.1159
vn 0.0505 -0.9938 -0.0989
vn 0.0603 -0.9947 -0.0828
vn 0.0765 -0.9949 -0.0661
vn 0.1021 -0.9940 -0.0399
vn 0.1294 -0.9913 -0.0242
vn -0.0000 0.9925 -0.1225
vn 0.0383 0.9925 -0.1159
vn 0.0505 0.9938 -0.0989
vn 0.0603 0.9947 -0.0828
vn 0.0765 0.9949 -0.0661
vn 0.1021 0.9940 -0.0399
vn 0.1294 0.9913 -0.0242
vn -0.0213 -0.9984 0.0522
vn -0.0213 0.9984 0.0522
vn -0.0072 -0.9991 0.0424
vn -0.0072 0.9991 0.0424
vn 0.0061 -0.9994 0.0346
vn 0.0061 0.9994 0.0346
vn -0.0261 -0.9995 0.0197
vn -0.0261 0.9995 0.0197
vn -0.1047 -0.9945 -0.0047
vn -0.1047 0.9945 -0.0047
vn -0.1282 -0.9917 -0.0118
vn -0.1282 0.9917 -0.0118
vn -0.1822 -0.0000 -0.9833
vn -0.3286 -0.0000 -0.9445
vn -0.4844 -0.0000 -0.8748
vn -0.6234 -0.0000 -0.7819
vn -0.7747 -0.0000 -0.6324
vn -0.9041 -0.0000 -0.4274
vn -0.0383 -0.9925 -0.1159
vn -0.0505 -0.9938 -0.0989
vn -0.0603 -0.9947 -0.0828
vn -0.0765 -0.9949 -0.0661
vn -0.1021 -0.9940 -0.0399
vn -0.1294 -0.9913 -0.0242
vn -0.0383 0.9925 -0.1159
vn -0.0505 0.9938 -0.0989
vn -0.0603 0.9947 -0.0828
vn -0.0765 0.9949 -0.0661
vn -0.1021 0.9940 -0.0399
vn -0.1294 0.9913 -0.0242
vt 0.500000 0.250000
vt 0.583333 0.250000
vt 0.583333 0.000000
vt 0.500000 0.000000
vt 0.666667 0.250000
vt 0.666667 0.000000
vt 0.750000 0.250000
vt 0.750000 0.000000
vt 0.833333 0.250000
vt 0.833333 0.000000
vt 0.916667 0.250000
vt 0.916667 0.000000
vt 1.000000 0.250000
vt 1.000000 0.000000
vt 0.916667 0.750000
vt 1.000000 0.750000
vt 1.000000 0.500000
vt 0.916667 0.500000
vt 0.833333 0.750000
vt 0.833333 0.500000
vt 0.750000 0.750000
vt 0.750000 0.500000
vt 0.666667 0.750000
vt 0.666667 0.500000
vt 0.583333 0.750000
vt 0.583333 0.500000
vt 0.500000 0.750000
vt 0.500000 0.500000
vt 0.500000 1.000000
vt 0.583333 1.000000
vt 0.666667 1.000000
vt 0.750000 1.000000
vt 0.833333 1.000000
vt 0.916667 1.000000
vt 1.000000 1.000000
s 1
usemtl none
f 22/1/22 23/2/23 3/3/3 1/4/1
f 23/2/23 24/5/24 5/6/5 3/3/3
f 24/5/24 25/7/25 7/8/7 5/6/5
f 25/7/25 26/9/26 9/10/9 7/8/7
f 26/9/26 27/11/27 11/12/11 9/10/9
f 27/11/27 28/13/28 13/14/13 11/12/11
f 34/15/34 35/16/35 21/17/21 20/18/20
f 33/19/33 34/15/34 20/18/20 19/20/19
f 32/21/32 33/19/33 19/20/19 18/22/18
f 31/23/31 32/21/32 18/22/18 17/24/17
f 30/25/30 31/23/31 17/24/17 16/26/16
f 29/27/29 30/25/30 16/26/16 15/28/15
f 20/18/20 21/17/21 28/13/28 27/11/27
f 19/20/19 20/18/20 27/11/27 26/9/26
f 18/22/18 19/20/19 26/9/26 25/7/25
f 17/24/17 18/22/18 25/7/25 24/5/24
f 16/26/16 17/24/17 24/5/24 23/2/23
f 15/28/15 16/26/16 23/2/23 22/1/22
f 2/29/2 4/30/4 30/25/30 29/27/29
f 4/30/4 6/31/6 31/23/31 30/25/30
f 6/31/6 8/32/8 32/21/32 31/23/31
f 8/32/8 10/33/10 33/19/33 32/21/32
f 10/33/10 12/34/12 34/15/34 33/19/33
f 12/34/12 14/35/14 35/16/35 34/15/34
f 22/1/22 1/4/1 36/3/36 54/2/54
f 54/2/54 36/3/36 38/6/38 55/5/55
f 55/5/55 38/6/38 40/8/40 56/7/56
f 56/7/56 40/8/40 42/10/42 57/9/57
f 57/9/57 42/10/42 44/12/44 58/11/58
f 58/11/58 44/12/44 46/14/46 59/13/59
f 64/15/64 52/18/52 53/17/53 65/16/65
f 63/19/63 51/20/51 52/18/52 64/15/64
f 62/21/62 50/22/50 51/20/51 63/19/63
f 61/23/61 49/24/49 50/22/50 62/21/62
f 60/25/60 48/26/48 49/24/49 61/23/61
f 29/27/29 15/28/15 48/26/48 60/25/60
f 52/18/52 58/11/58 59/13/59 53/17/53
f 51/20/51 57/9/57 58/11/58 52/18/52
f 50/22/50 56/7/56 57/9/57 51/20/51
f 49/24/49 55/5/55 56/7/56 50/22/50
f 48/26/48 54/2/54 55/5/55 49/24/49
f 15/28/15 22/1/22 54/2/54 48/26/48
f 2/29/2 29/27/29 60/25/60 37/30/37
f 37/30/37 60/25/60 61/23/61 39/31/39
f 39/31/39 61/23/61 62/21/62 41/32/41
f 41/32/41 62/21/62 63/19/63 43/33/43
f 43/33/43 63/19/63 64/15/64 45/34/45
f 45/34/45 64/15/64 65/16/65 47/35/47
