# Made in Blockbench 5.0.4
mtllib wand.mtl

o cylinder
v 0 0 0
v 0 0.5 0
v 0.016746875 0 0.0625
v 0.016746875 0.5 0.0625
v 0.045753125 0 0.045753125
v 0.045753125 0.5 0.045753125
v 0.0625 0 0.016746875
v 0.0625 0.5 0.016746875
v 0.0625 0 -0.016746875
v 0.0625 0.5 -0.016746875
v 0.045753125 0 -0.045753125
v 0.045753125 0.5 -0.045753125
v 0.016746875 0 -0.0625
v 0.016746875 0.5 -0.0625
v -0.016746875 0 -0.0625
v -0.016746875 0.5 -0.0625
v -0.045753125 0 -0.045753125
v -0.045753125 0.5 -0.045753125
v -0.0625 0 -0.016746875
v -0.0625 0.5 -0.016746875
v -0.0625 0 0.016746875
v -0.0625 0.5 0.016746875
v -0.045753125 0 0.045753125
v -0.045753125 0.5 0.045753125
v -0.016746875 0 0.0625
v -0.016746875 0.5 0.0625
v 0.016746875 0.229910625 0.0625
v 0.045753125 0.2377425 0.045753125
v 0.0625 0.242849375 0.016746875
v 0.0625 0.24957 -0.016746875
v 0.045753125 0.24482 -0.045753125
v 0.016746875 0.251519375 -0.0625
v -0.0625 0.25860375 -0.016746875
v -0.0625 0.24923 0.016746875
v -0.045753125 0.24760375 0.045753125
v -0.016746875 0.24374375 0.0625
v -0.016746875 0.25120875 -0.0625
v -0.045753125 0.24862875 -0.045753125
v -0.0112225 0.24351125 0.056975625
v -0.016746875 0.5625 0.0625
v 0.016746875 0.5625 0.0625
v -0.0625 0.5625 0.016746875
v -0.045753125 0.5625 0.045753125
v 0.045753125 0.5625 0.045753125
v 0.0625 0.5625 0.016746875
v 0.0625 0.5625 -0.016746875
v 0.045753125 0.5625 -0.045753125
v 0.016746875 0.5625 -0.0625
v -0.016746875 0.5625 -0.0625
v -0.045753125 0.5625 -0.045753125
v -0.0625 0.5625 -0.016746875
v 0 0.5625 0
vt 0.054128125 0.6791281250000001
vt 0.039621875 0.6875
vt 0.03125 0.65625
vt 0.597379375 0.873898125
vt 0.613558125 0.8782309375
vt 0.597379375 0.90625
vt 0.0625 0.6646218749999999
vt 0.054128125 0.6791281250000001
vt 0.03125 0.65625
vt 0.19113 0.37389531249999997
vt 0.2073075 0.37823312499999995
vt 0.19113 0.40625
vt 0.0625 0.6478781250000001
vt 0.0625 0.6646218749999999
vt 0.03125 0.65625
vt 0.437624375 0.3588265625
vt 0.4419571875 0.375
vt 0.4096053125 0.375
vt 0.054128125 0.6333718749999999
vt 0.0625 0.6478781250000001
vt 0.03125 0.65625
vt 0.6294571875 0.7963215625
vt 0.625124375 0.8125
vt 0.5971053125 0.7963215625
vt 0.039621875 0.625
vt 0.054128125 0.6333718749999999
vt 0.03125 0.65625
vt 0.6294584375 0.7338228124999999
vt 0.6251209375 0.75
vt 0.5971040625 0.7338228124999999
vt 0.022878125 0.625
vt 0.039621875 0.625
vt 0.03125 0.65625
vt 0.3482071875 0.3588265625
vt 0.343874375 0.375
vt 0.3158553125 0.3588265625
vt 0.008371875 0.6333718749999999
vt 0.022878125 0.625
vt 0.03125 0.65625
vt 0.6135575 0.5269121875
vt 0.59738 0.53125
vt 0.59738 0.49889531249999997
vt 0 0.6478781250000001
vt 0.008371875 0.6333718749999999
vt 0.03125 0.65625
vt 0.6135575 0.6875
vt 0.59738 0.6831621875
vt 0.6135575 0.6551453125
vt 0 0.6646218749999999
vt 0 0.6478781250000001
vt 0.03125 0.65625
vt 0.507688125 0.375
vt 0.5033553125 0.3588265625
vt 0.5357071875 0.3588265625
vt 0.008371875 0.6791281250000001
vt 0 0.6646218749999999
vt 0.03125 0.65625
vt 0.6014415625 0.4375
vt 0.5971040625 0.42132281250000003
vt 0.6294584375 0.42132281250000003
vt 0.022878125 0.6875
vt 0.008371875 0.6791281250000001
vt 0.03125 0.65625
vt 0.5971040625 0.59375
vt 0.6014415625 0.5775728124999999
vt 0.6294584375 0.59375
vt 0.039621875 0.6875
vt 0.022878125 0.6875
vt 0.03125 0.65625
vt 0.5973821875 0.34698093750000003
vt 0.6135553125 0.34264812499999997
vt 0.6135553125 0.375
vt 0.129465625 0.83370625
vt 0.129465625 0.71875
vt 0.146209375 0.71875
vt 0.146209375 0.837621875
vt 0.146209375 0.837621875
vt 0.146209375 0.96875
vt 0.129465625 0.96875
vt 0.129465625 0.83370625
vt 0.002228125 0.837621875
vt 0.002228125 0.71875
vt 0.018971875 0.71875
vt 0.018971875 0.840175
vt 0.018971875 0.840175
vt 0.018971875 0.96875
vt 0.002228125 0.96875
vt 0.002228125 0.837621875
vt 0.018971875 0.840175
vt 0.018971875 0.71875
vt 0.035715625 0.71875
vt 0.035715625 0.843534375
vt 0.035715625 0.843534375
vt 0.035715625 0.96875
vt 0.018971875 0.96875
vt 0.018971875 0.840175
vt 0.035715625 0.71875
vt 0.052459375 0.71875
vt 0.052459375 0.8411593749999999
vt 0.035715625 0.843534375
vt 0.035715625 0.843534375
vt 0.052459375 0.8411593749999999
vt 0.052459375 0.96875
vt 0.035715625 0.96875
vt 0.283478125 0.8411593749999999
vt 0.283478125 0.71875
vt 0.300221875 0.71875
vt 0.300221875 0.844509375
vt 0.300221875 0.844509375
vt 0.300221875 0.96875
vt 0.283478125 0.96875
vt 0.283478125 0.8411593749999999
vt 0.206471875 0.71875
vt 0.223215625 0.71875
vt 0.223215625 0.843365625
vt 0.206471875 0.848053125
vt 0.206471875 0.848053125
vt 0.223215625 0.843365625
vt 0.223215625 0.96875
vt 0.206471875 0.96875
vt 0.223215625 0.71875
vt 0.239959375 0.71875
vt 0.239959375 0.842553125
vt 0.223215625 0.843365625
vt 0.223215625 0.843365625
vt 0.239959375 0.842553125
vt 0.239959375 0.96875
vt 0.223215625 0.96875
vt 0.095978125 0.71875
vt 0.112721875 0.71875
vt 0.112721875 0.840621875
vt 0.095978125 0.842553125
vt 0.095978125 0.842553125
vt 0.112721875 0.840621875
vt 0.112721875 0.96875
vt 0.095978125 0.96875
vt 0.112721875 0.71875
vt 0.129465625 0.71875
vt 0.129465625 0.83370625
vt 0.112721875 0.840621875
vt 0.112721875 0.840621875
vt 0.129465625 0.83370625
vt 0.129465625 0.96875
vt 0.112721875 0.96875
vt 0.300221875 0.71875
vt 0.316965625 0.71875
vt 0.316965625 0.844353125
vt 0.300221875 0.844509375
vt 0.300221875 0.844509375
vt 0.316965625 0.844353125
vt 0.316965625 0.96875
vt 0.300221875 0.96875
vt 0.316965625 0.71875
vt 0.333709375 0.71875
vt 0.333709375 0.843065625
vt 0.316965625 0.844353125
vt 0.316965625 0.844353125
vt 0.333709375 0.843065625
vt 0.333709375 0.96875
vt 0.316965625 0.96875
vt 0.189728125 0.843065625
vt 0.189728125 0.71875
vt 0.206471875 0.71875
vt 0.206471875 0.848053125
vt 0.206471875 0.848053125
vt 0.206471875 0.96875
vt 0.189728125 0.96875
vt 0.189728125 0.843065625
vt 0.129465625 1
vt 0.112721875 1
vt 0.112721875 0.96875
vt 0.129465625 0.96875
vt 0.375 0.53125
vt 0.34375 0.53125
vt 0.34375 0.5
vt 0.375 0.5
vt 0.53345625 1
vt 0.501103125 1
vt 0.501103125 0.96875
vt 0.53345625 0.96875
vt 0.239959375 1
vt 0.223215625 1
vt 0.223215625 0.96875
vt 0.239959375 0.96875
vt 0.21875 0.46875
vt 0.1875 0.46875
vt 0.1875 0.4375
vt 0.21875 0.4375
vt 0.5 0.59375
vt 0.46875 0.59375
vt 0.46875 0.5625
vt 0.5 0.5625
vt 0.018971875 1
vt 0.002228125 1
vt 0.002228125 0.96875
vt 0.018971875 0.96875
vt 0.5 0.53125
vt 0.46875 0.53125
vt 0.46875 0.5
vt 0.5 0.5
vt 0.15625 0.5
vt 0.125 0.5
vt 0.125 0.46875
vt 0.15625 0.46875
vt 0.052459375 1
vt 0.035715625 1
vt 0.035715625 0.96875
vt 0.052459375 0.96875
vt 0.5625 0.8125
vt 0.53125 0.8125
vt 0.53125 0.78125
vt 0.5625 0.78125
vt 0.09375 0.5
vt 0.0625 0.5
vt 0.0625 0.46875
vt 0.09375 0.46875
vt 0.316965625 1
vt 0.300221875 1
vt 0.300221875 0.96875
vt 0.316965625 0.96875
vt 0.501103125 1
vt 0.46875 1
vt 0.46875 0.96875
vt 0.501103125 0.96875
vt 0.4375 0.53125
vt 0.40625 0.53125
vt 0.40625 0.5
vt 0.4375 0.5
vt 0.206471875 1
vt 0.189728125 1
vt 0.189728125 0.96875
vt 0.206471875 0.96875
vt 0.03125 0.5
vt 0 0.5
vt 0 0.46875
vt 0.03125 0.46875
vt 0.5625 0.875
vt 0.53125 0.875
vt 0.53125 0.84375
vt 0.5625 0.84375
vt 0.65781375 0.4921875
vt 0.66169125 0.492665625
vt 0.6640625 0.5093540624999999
vt 0.65781375 0.5248878125
vt 0.515625 0.90625
vt 0.500679375 0.9375
vt 0.4836521875 0.9335703125
vt 0.47091 0.90625
vt 0.2242609375 0.5889
vt 0.20791375 0.5852546875
vt 0.195760625 0.5732550000000001
vt 0.1902896875 0.55921875
vt 0.1898015625 0.5587925
vt 0.1932765625 0.5420674999999999
vt 0.2044796875 0.52936125
vt 0.2204046875 0.52349875
vt 0.339466875 0.5625
vt 0.3312365625 0.57959625
vt 0.3017428125 0.59375
vt 0.28125 0.5625
vt 0.2242609375 0.5889
vt 0.1898015625 0.5587925
vt 0.2204578125 0.5234375
vn 0 -1 0
vn 0 1 0
vn 0 -1 0
vn 0 1 0
vn 0 -1 0
vn 0 1 0
vn 0 -1 0
vn 0 1 0
vn 0 -1 0
vn 0 1 0
vn 0 -1 0
vn 0 1 0
vn 0 -1 0
vn 0 1 0
vn 0 -1 0
vn 0 1 0
vn 0 -1 0
vn 0 1 0
vn 0 -1 0
vn 0 1 0
vn 0 -1 0
vn 0 1 0
vn 0 -1 0
vn 0 1 0
vn 0.5000024352623959 0 0.8660239977804736
vn 0.5000024352623959 0 0.8660239977804736
vn 0.8660239977804736 0 0.5000024352623959
vn 0.8660239977804736 0 0.500002435262396
vn 1 0 0
vn 1 0 0
vn 0.8660239977804737 0 -0.500002435262396
vn 0.8660239977804737 0 -0.500002435262396
vn 0.500002435262396 0 -0.8660239977804737
vn 0.500002435262396 0 -0.8660239977804737
vn -1 0 0
vn -1 0 0
vn -0.8660239977804736 0 0.500002435262396
vn -0.8660239977804736 0 0.5000024352623959
vn -0.5000024352623959 0 0.8660239977804736
vn -0.5000024352623959 0 0.8660239977804736
vn 0 0 1
vn 0 0 1
vn 0 0 -1
vn 0 0 -1
vn -0.5000024352623959 0 -0.8660239977804735
vn -0.5000024352623959 0 -0.8660239977804738
vn -0.8660239977804735 0 -0.5000024352623959
vn -0.8660239977804737 0 -0.500002435262396
vn 0 0 1
vn 0.9659256312759247 0 -0.25881977290038405
vn -0.9659256312759247 0 -0.25881977290038405
vn -0.8660239977804736 0 0.5000024352623959
vn 0.7071067811865476 0 0.7071067811865476
vn -0.25881977290038405 0 -0.9659256312759247
vn 0.8660239977804736 0 0.5000024352623959
vn 0.25881977290038405 0 -0.9659256312759247
vn -0.7071067811865476 0 0.7071067811865476
vn 0.8660239977804736 0 -0.5000024352623959
vn -0.7071067811865476 0 -0.7071067811865476
vn 0.25881977290038405 0 0.9659256312759247
vn 0 0 -1
vn -0.9659256312759247 0 0.25881977290038405
vn 0.9659256312759247 0 0.25881977290038405
vn -0.8660239977804736 0 -0.5000024352623959
vn -0.25881977290038405 0 0.9659256312759247
vn 0.7071067811865476 0 -0.7071067811865476
vn -0.09911447709579378 -0.993424610747281 -0.05730500145398106
vn -0.7209647279351218 -0.6673301461929175 -0.1867627828438401
vn 0.008562130953734327 -0.9232285670233595 -0.38415583159119865
vn -0.04172539356624708 -0.9796034753350769 -0.1965604808784857
vn -0.4586580500898185 -0.7490011563548301 0.47815275892431375
vn 0.08984713242954531 -0.9775410979577331 -0.19063287911002483
usemtl m_5b3e3c4b-ba7a-3699-6d61-82ffa0eeb1ad
f 5/1/1 3/2/1 1/3/1
f 4/4/2 6/5/2 2/6/2
f 7/7/3 5/8/3 1/9/3
f 44/10/4 45/11/4 52/12/4
f 9/13/5 7/14/5 1/15/5
f 8/16/6 10/17/6 2/18/6
f 11/19/7 9/20/7 1/21/7
f 46/22/8 47/23/8 52/24/8
f 13/25/9 11/26/9 1/27/9
f 12/28/10 14/29/10 2/30/10
f 15/31/11 13/32/11 1/33/11
f 48/34/12 49/35/12 52/36/12
f 17/37/13 15/38/13 1/39/13
f 16/40/14 18/41/14 2/42/14
f 19/43/15 17/44/15 1/45/15
f 50/46/16 51/47/16 52/48/16
f 21/49/17 19/50/17 1/51/17
f 20/52/18 22/53/18 2/54/18
f 23/55/19 21/56/19 1/57/19
f 42/58/20 43/59/20 52/60/20
f 25/61/21 23/62/21 1/63/21
f 24/64/22 26/65/22 2/66/22
f 3/67/23 25/68/23 1/69/23
f 40/70/24 41/71/24 52/72/24
f 27/73/25 3/74/25 5/75/25 28/76/25
f 28/77/26 6/78/26 4/79/26 27/80/26
f 28/81/27 5/82/27 7/83/27 29/84/27
f 29/85/28 8/86/28 6/87/28 28/88/28
f 29/89/29 7/90/29 9/91/29 30/92/29
f 30/93/30 10/94/30 8/95/30 29/96/30
f 9/97/31 11/98/31 31/99/31 30/100/31
f 30/101/32 31/102/32 12/103/32 10/104/32
f 31/105/33 11/106/33 13/107/33 32/108/33
f 32/109/34 14/110/34 12/111/34 31/112/34
f 19/113/35 21/114/35 34/115/35 33/116/35
f 33/117/36 34/118/36 22/119/36 20/120/36
f 21/121/37 23/122/37 35/123/37 34/124/37
f 34/125/38 35/126/38 24/127/38 22/128/38
f 23/129/39 25/130/39 36/131/39 35/132/39
f 35/133/40 36/134/40 26/135/40 24/136/40
f 25/137/41 3/138/41 27/139/41 36/140/41
f 36/141/42 27/142/42 4/143/42 26/144/42
f 13/145/43 15/146/43 37/147/43 32/148/43
f 32/149/44 37/150/44 16/151/44 14/152/44
f 15/153/45 17/154/45 38/155/45 37/156/45
f 37/157/46 38/158/46 18/159/46 16/160/46
f 38/161/47 17/162/47 19/163/47 33/164/47
f 33/165/48 20/166/48 18/167/48 38/168/48
f 41/169/49 40/170/49 26/171/49 4/172/49
f 52/173/50 41/174/50 4/175/50 2/176/50
f 40/177/51 52/178/51 2/179/51 26/180/51
f 43/181/52 42/182/52 22/183/52 24/184/52
f 52/185/53 43/186/53 24/187/53 2/188/53
f 42/189/54 52/190/54 2/191/54 22/192/54
f 45/193/55 44/194/55 6/195/55 8/196/55
f 52/197/56 45/198/56 8/199/56 2/200/56
f 44/201/57 52/202/57 2/203/57 6/204/57
f 47/205/58 46/206/58 10/207/58 12/208/58
f 52/209/59 47/210/59 12/211/59 2/212/59
f 46/213/60 52/214/60 2/215/60 10/216/60
f 49/217/61 48/218/61 14/219/61 16/220/61
f 52/221/62 49/222/62 16/223/62 2/224/62
f 48/225/63 52/226/63 2/227/63 14/228/63
f 51/229/64 50/230/64 18/231/64 20/232/64
f 52/233/65 51/234/65 20/235/65 2/236/65
f 50/237/66 52/238/66 2/239/66 18/240/66
f 39/241/67 36/242/67 35/243/67 34/244/67
f 34/245/68 33/246/68 38/247/68 37/248/68
f 37/249/69 32/250/69 31/251/69 30/252/69
f 30/253/70 29/254/70 28/255/70 27/256/70
f 27/257/71 39/258/71 34/259/71 37/260/71
f 37/261/72 30/262/72 27/263/72
o cube
v 0.015625 0.575339543487449 0.13455646836170032
v 0.015625 0.5921301562482872 0.10820048568004763
v 0.015625 0.46991561276083826 0.06739401731834732
v 0.015625 0.48670622552167647 0.04103803463669464
v -0.015625 0.575339543487449 0.13455646836170032
v -0.015625 0.5921301562482872 0.10820048568004763
v -0.015625 0.46991561276083826 0.06739401731834732
v -0.015625 0.48670622552167647 0.04103803463669464
v -0.015625 0.5753394333572461 -0.1345564806724896
v -0.015625 0.5921303388162962 -0.10820024711416665
v -0.015625 0.4699160336803735 -0.06739410438299531
v -0.015625 0.4867064120197699 -0.04103820663692753
v 0.015625 0.5753394333572461 -0.1345564806724896
v 0.015625 0.5921303388162962 -0.10820024711416665
v 0.015625 0.4699160336803735 -0.06739410438299531
v 0.015625 0.4867064120197699 -0.04103820663692753
v 0.13455625 0.5753395550761671 -0.0156251221704468
v 0.108200625 0.5921301462799835 -0.015624733172284827
v 0.06739375 0.46991545840847093 -0.015625063893676905
v 0.041038125 0.4867063854245427 -0.01562520201516858
v 0.13455625 0.575339421768528 0.01562510985965747
v 0.108200625 0.5921303487845998 0.015624971738165822
v 0.06739375 0.46991532510083195 0.015625168136427336
v 0.041038125 0.48670625211690366 0.015625030014935676
v -0.13455625 0.575339421768528 0.01562510985965747
v -0.108200625 0.5921303487845998 0.015624971738165822
v -0.06739375 0.46991532510083195 0.015625168136427336
v -0.041038125 0.48670625211690366 0.015625030014935676
v -0.13455625 0.5753395550761671 -0.0156251221704468
v -0.108200625 0.5921301462799835 -0.015624733172284827
v -0.06739375 0.46991545840847093 -0.015625063893676905
v -0.041038125 0.4867063854245427 -0.01562520201516858
vt 0.359375 0.40625
vt 0.359375 0.46875
vt 0.34375 0.46875
vt 0.34375 0.40625
vt 0.421875 0.40625
vt 0.421875 0.46875
vt 0.40625 0.46875
vt 0.40625 0.40625
vt 0.0625 0.34375
vt 0.0625 0.328125
vt 0.078125 0.328125
vt 0.078125 0.34375
vt 0.65625 0.921875
vt 0.65625 0.9375
vt 0.671875 0.9375
vt 0.671875 0.921875
vt 0.546875 0.59375
vt 0.546875 0.65625
vt 0.53125 0.65625
vt 0.53125 0.59375
vt 0.546875 0.6875
vt 0.546875 0.75
vt 0.53125 0.75
vt 0.53125 0.6875
vt 0.484375 0.40625
vt 0.484375 0.46875
vt 0.46875 0.46875
vt 0.46875 0.40625
vt 0.015625 0.375
vt 0.015625 0.4375
vt 0 0.4375
vt 0 0.375
vt 0.125 0.34375
vt 0.125 0.328125
vt 0.140625 0.328125
vt 0.140625 0.34375
vt 0.65625 0.859375
vt 0.65625 0.875
vt 0.671875 0.875
vt 0.671875 0.859375
vt 0.546875 0.40625
vt 0.546875 0.46875
vt 0.53125 0.46875
vt 0.53125 0.40625
vt 0.546875 0.5
vt 0.546875 0.5625
vt 0.53125 0.5625
vt 0.53125 0.5
vt 0.484375 0.71875
vt 0.484375 0.78125
vt 0.46875 0.78125
vt 0.46875 0.71875
vt 0.484375 0.625
vt 0.484375 0.6875
vt 0.46875 0.6875
vt 0.46875 0.625
vt 0 0.34375
vt 0 0.328125
vt 0.015625 0.328125
vt 0.015625 0.34375
vt 0.65625 0.984375
vt 0.65625 1
vt 0.671875 1
vt 0.671875 0.984375
vt 0.296875 0.46875
vt 0.296875 0.53125
vt 0.28125 0.53125
vt 0.28125 0.46875
vt 0.484375 0.8125
vt 0.484375 0.875
vt 0.46875 0.875
vt 0.46875 0.8125
vt 0.140625 0.375
vt 0.140625 0.4375
vt 0.125 0.4375
vt 0.125 0.375
vt 0.609375 0.9375
vt 0.609375 1
vt 0.59375 1
vt 0.59375 0.9375
vt 0.25 0.34375
vt 0.25 0.328125
vt 0.265625 0.328125
vt 0.265625 0.34375
vt 0.65625 0.671875
vt 0.65625 0.6875
vt 0.671875 0.6875
vt 0.671875 0.671875
vt 0.265625 0.375
vt 0.265625 0.4375
vt 0.25 0.4375
vt 0.25 0.375
vt 0.078125 0.375
vt 0.078125 0.4375
vt 0.0625 0.4375
vt 0.0625 0.375
vn 1 0 0
vn -1 0 0
vn 0 0.8433914458128857 0.5372996083468239
vn 0 -0.8433914458128857 -0.5372996083468239
vn 0 -0.5372996083468239 0.8433914458128857
vn 0 0.5372996083468239 -0.8433914458128857
vn -1 0 0
vn 1 0 0
vn 0 0.8433895190612355 -0.5373026327291333
vn 0 -0.8433940605029927 0.5372955040834367
vn 0 -0.5373011081450638 -0.8433904903341551
vn 0 0.5372972862726874 0.8433929251327674
vn -0.000008483292973550076 0.000009851688458573095 -0.9999999999154892
vn -0.0000034772101533953478 0.000002768009459142018 0.9999999999901237
vn 0.5373043043562341 0.843388454088858 -0.000005465333375753723
vn -0.5373119480832872 -0.8433835843991745 -0.000003597716467962364
vn 0.8433916515760083 -0.5372992853583929 -0.0000022920181549646035
vn -0.8433916515745578 0.5372992853542771 -0.000003481811616939945
vn 0.000003477210153173301 0.0000027680094589199733 0.9999999999901237
vn 0.000010749093451211706 0.000006295137829126496 -0.9999999999224142
vn -0.5373119481125239 0.8433835843705136 -0.000005465301818941005
vn 0.5373119480832871 -0.8433835843991744 -0.000003597716467906852
vn -0.8433916515760084 -0.5372992853583929 -0.0000022920181549646035
vn 0.8433908759985422 0.5373005027638524 -0.000003481819505990469
usemtl m_5b3e3c4b-ba7a-3699-6d61-82ffa0eeb1ad
f 56/264/73 54/265/73 53/266/73 55/267/73
f 59/268/74 57/269/74 58/270/74 60/271/74
f 53/272/75 54/273/75 58/274/75 57/275/75
f 56/276/76 55/277/76 59/278/76 60/279/76
f 55/280/77 53/281/77 57/282/77 59/283/77
f 60/284/78 58/285/78 54/286/78 56/287/78
f 64/288/79 62/289/79 61/290/79 63/291/79
f 67/292/80 65/293/80 66/294/80 68/295/80
f 61/296/81 62/297/81 66/298/81 65/299/81
f 64/300/82 63/301/82 67/302/82 68/303/82
f 63/304/83 61/305/83 65/306/83 67/307/83
f 68/308/84 66/309/84 62/310/84 64/311/84
f 72/312/85 70/313/85 69/314/85 71/315/85
f 75/316/86 73/317/86 74/318/86 76/319/86
f 69/320/87 70/321/87 74/322/87 73/323/87
f 72/324/88 71/325/88 75/326/88 76/327/88
f 71/328/89 69/329/89 73/330/89 75/331/89
f 76/332/90 74/333/90 70/334/90 72/335/90
f 80/336/91 78/337/91 77/338/91 79/339/91
f 83/340/92 81/341/92 82/342/92 84/343/92
f 77/344/93 78/345/93 82/346/93 81/347/93
f 80/348/94 79/349/94 83/350/94 84/351/94
f 79/352/95 77/353/95 81/354/95 83/355/95
f 84/356/96 82/357/96 78/358/96 80/359/96